solid OpenSCAD_Model
  facet normal 0 0 -1
    outer loop
      vertex 0 0 0
      vertex 6.887706508215857 6.021792747981941 0
      vertex 15 0 0
    endloop
  endfacet
  facet normal 0 0 -1
    outer loop
      vertex 0 0 0
      vertex 6.169648620315927 6.6110876271686365 0
      vertex 6.3686291501015235 6.3686291501015235 0
    endloop
  endfacet
  facet normal 0 0 -1
    outer loop
      vertex 0 0 0
      vertex 6.021792747981941 6.887706508215857 0
      vertex 6.169648620315927 6.6110876271686365 0
    endloop
  endfacet
  facet normal 0 0 -1
    outer loop
      vertex 0 0 0
      vertex 6.3686291501015235 6.3686291501015235 0
      vertex 6.6110876271686365 6.169648620315927 0
    endloop
  endfacet
  facet normal 0 0 -1
    outer loop
      vertex 0 0 0
      vertex 6.6110876271686365 6.169648620315927 0
      vertex 6.887706508215857 6.021792747981941 0
    endloop
  endfacet
  facet normal 0 0 -1
    outer loop
      vertex 0 0 0
      vertex 5.930743551354832 7.187855484774195 0
      vertex 6.021792747981941 6.887706508215857 0
    endloop
  endfacet
  facet normal 0 0 -1
    outer loop
      vertex 0 0 0
      vertex 5.9 7.5 0
      vertex 5.930743551354832 7.187855484774195 0
    endloop
  endfacet
  facet normal 0 0 -1
    outer loop
      vertex 0 0 0
      vertex 5.930743551354832 7.812144515225805 0
      vertex 5.9 7.5 0
    endloop
  endfacet
  facet normal 0 0 -1
    outer loop
      vertex 0 0 0
      vertex 6.021792747981941 8.112293491784143 0
      vertex 5.930743551354832 7.812144515225805 0
    endloop
  endfacet
  facet normal 0 0 1
    outer loop
      vertex 0 0 6
      vertex 5.391705307672741 5.391705307672741 6
      vertex 5.020907708582148 5.843523489444186 6
    endloop
  endfacet
  facet normal 0 0 1
    outer loop
      vertex 0 0 6
      vertex 5.843523489444186 5.020907708582148 6
      vertex 5.391705307672741 5.391705307672741 6
    endloop
  endfacet
  facet normal -1 0 0
    outer loop
      vertex 0 0 0
      vertex 0 0 6
      vertex 0 15 6
    endloop
  endfacet
  facet normal 0 0 1
    outer loop
      vertex 0 0 6
      vertex 5.020907708582148 5.843523489444186 6
      vertex 4.745380235959769 6.358999134553562 6
    endloop
  endfacet
  facet normal 0 0 1
    outer loop
      vertex 0 0 6
      vertex 4.745380235959769 6.358999134553562 6
      vertex 4.575711256060894 6.918322803041386 6
    endloop
  endfacet
  facet normal 0 0 1
    outer loop
      vertex 0 0 6
      vertex 4.575711256060894 6.918322803041386 6
      vertex 4.518421052631578 7.5 6
    endloop
  endfacet
  facet normal 0 0 1
    outer loop
      vertex 0 0 6
      vertex 4.518421052631578 7.5 6
      vertex 4.575711256060894 8.081677196958614 6
    endloop
  endfacet
  facet normal 0 0 1
    outer loop
      vertex 0 0 6
      vertex 4.575711256060894 8.081677196958614 6
      vertex 4.745380235959769 8.641000865446438 6
    endloop
  endfacet
  facet normal 0 -1 0
    outer loop
      vertex 0 0 0
      vertex 15 0 6
      vertex 0 0 6
    endloop
  endfacet
  facet normal 0 0 1
    outer loop
      vertex 0 0 6
      vertex 6.358999134553562 4.745380235959769 6
      vertex 5.843523489444186 5.020907708582148 6
    endloop
  endfacet
  facet normal 0 0 1
    outer loop
      vertex 0 0 6
      vertex 15 0 6
      vertex 6.358999134553562 4.745380235959769 6
    endloop
  endfacet
  facet normal 0 0 -1
    outer loop
      vertex 0 0 0
      vertex 0 15 0
      vertex 6.021792747981941 8.112293491784143 0
    endloop
  endfacet
  facet normal -1 0 0
    outer loop
      vertex 0 0 0
      vertex 0 15 6
      vertex 0 15 0
    endloop
  endfacet
  facet normal 0 0 -1
    outer loop
      vertex 0 15 0
      vertex 6.169648620315927 8.388912372831363 0
      vertex 6.021792747981941 8.112293491784143 0
    endloop
  endfacet
  facet normal 0 0 -1
    outer loop
      vertex 0 15 0
      vertex 6.3686291501015235 8.631370849898476 0
      vertex 6.169648620315927 8.388912372831363 0
    endloop
  endfacet
  facet normal 0 0 -1
    outer loop
      vertex 0 15 0
      vertex 6.6110876271686365 8.830351379684073 0
      vertex 6.3686291501015235 8.631370849898476 0
    endloop
  endfacet
  facet normal 0 0 -1
    outer loop
      vertex 0 15 0
      vertex 6.887706508215857 8.97820725201806 0
      vertex 6.6110876271686365 8.830351379684073 0
    endloop
  endfacet
  facet normal 0 0 -1
    outer loop
      vertex 0 15 0
      vertex 7.187855484774195 9.069256448645168 0
      vertex 6.887706508215857 8.97820725201806 0
    endloop
  endfacet
  facet normal 0 0 -1
    outer loop
      vertex 0 15 0
      vertex 7.5 9.1 0
      vertex 7.187855484774195 9.069256448645168 0
    endloop
  endfacet
  facet normal 0 0 -1
    outer loop
      vertex 0 15 0
      vertex 7.812144515225805 9.069256448645168 0
      vertex 7.5 9.1 0
    endloop
  endfacet
  facet normal 0 0 -1
    outer loop
      vertex 0 15 0
      vertex 8.112293491784143 8.97820725201806 0
      vertex 7.812144515225805 9.069256448645168 0
    endloop
  endfacet
  facet normal 0 1 0
    outer loop
      vertex 0 15 0
      vertex 0 15 6
      vertex 15 15 0
    endloop
  endfacet
  facet normal 0 0 1
    outer loop
      vertex 0 0 6
      vertex 4.745380235959769 8.641000865446438 6
      vertex 0 15 6
    endloop
  endfacet
  facet normal 0 0 1
    outer loop
      vertex 0 15 6
      vertex 4.745380235959769 8.641000865446438 6
      vertex 5.020907708582148 9.156476510555814 6
    endloop
  endfacet
  facet normal 0 0 1
    outer loop
      vertex 0 15 6
      vertex 5.020907708582148 9.156476510555814 6
      vertex 5.391705307672741 9.608294692327258 6
    endloop
  endfacet
  facet normal 0 0 1
    outer loop
      vertex 0 15 6
      vertex 5.391705307672741 9.608294692327258 6
      vertex 5.843523489444186 9.979092291417851 6
    endloop
  endfacet
  facet normal 0 0 1
    outer loop
      vertex 0 15 6
      vertex 5.843523489444186 9.979092291417851 6
      vertex 6.358999134553562 10.254619764040232 6
    endloop
  endfacet
  facet normal 0 0 1
    outer loop
      vertex 0 15 6
      vertex 6.358999134553562 10.254619764040232 6
      vertex 6.918322803041386 10.424288743939107 6
    endloop
  endfacet
  facet normal 0 0 1
    outer loop
      vertex 0 15 6
      vertex 6.918322803041386 10.424288743939107 6
      vertex 15 15 6
    endloop
  endfacet
  facet normal 0 -1 0
    outer loop
      vertex 0 0 0
      vertex 15 0 0
      vertex 15 0 6
    endloop
  endfacet
  facet normal 0 0 -1
    outer loop
      vertex 15 0 0
      vertex 6.887706508215857 6.021792747981941 0
      vertex 7.187855484774195 5.930743551354832 0
    endloop
  endfacet
  facet normal 0 0 -1
    outer loop
      vertex 15 0 0
      vertex 7.187855484774195 5.930743551354832 0
      vertex 7.5 5.9 0
    endloop
  endfacet
  facet normal 0 0 -1
    outer loop
      vertex 15 0 0
      vertex 7.5 5.9 0
      vertex 7.812144515225805 5.930743551354832 0
    endloop
  endfacet
  facet normal 0 0 -1
    outer loop
      vertex 15 0 0
      vertex 7.812144515225805 5.930743551354832 0
      vertex 8.112293491784143 6.021792747981941 0
    endloop
  endfacet
  facet normal 0 0 -1
    outer loop
      vertex 15 0 0
      vertex 8.112293491784143 6.021792747981941 0
      vertex 8.388912372831363 6.169648620315927 0
    endloop
  endfacet
  facet normal 0 0 -1
    outer loop
      vertex 15 0 0
      vertex 8.388912372831363 6.169648620315927 0
      vertex 8.631370849898476 6.3686291501015235 0
    endloop
  endfacet
  facet normal 0 0 -1
    outer loop
      vertex 15 0 0
      vertex 8.631370849898476 6.3686291501015235 0
      vertex 8.830351379684073 6.6110876271686365 0
    endloop
  endfacet
  facet normal 0 0 -1
    outer loop
      vertex 15 0 0
      vertex 8.830351379684073 6.6110876271686365 0
      vertex 8.97820725201806 6.887706508215857 0
    endloop
  endfacet
  facet normal 0 0 -1
    outer loop
      vertex 15 0 0
      vertex 8.97820725201806 6.887706508215857 0
      vertex 15 15 0
    endloop
  endfacet
  facet normal 1 0 0
    outer loop
      vertex 15 0 0
      vertex 15 15 0
      vertex 15 0 6
    endloop
  endfacet
  facet normal 0 0 1
    outer loop
      vertex 15 0 6
      vertex 6.918322803041386 4.575711256060894 6
      vertex 6.358999134553562 4.745380235959769 6
    endloop
  endfacet
  facet normal 0 0 1
    outer loop
      vertex 15 0 6
      vertex 7.5 4.518421052631578 6
      vertex 6.918322803041386 4.575711256060894 6
    endloop
  endfacet
  facet normal 0 0 1
    outer loop
      vertex 15 0 6
      vertex 8.081677196958614 4.575711256060894 6
      vertex 7.5 4.518421052631578 6
    endloop
  endfacet
  facet normal 0 0 1
    outer loop
      vertex 15 0 6
      vertex 8.641000865446438 4.745380235959769 6
      vertex 8.081677196958614 4.575711256060894 6
    endloop
  endfacet
  facet normal 0 0 1
    outer loop
      vertex 15 0 6
      vertex 9.156476510555814 5.020907708582148 6
      vertex 8.641000865446438 4.745380235959769 6
    endloop
  endfacet
  facet normal 0 0 1
    outer loop
      vertex 15 0 6
      vertex 9.608294692327258 5.391705307672741 6
      vertex 9.156476510555814 5.020907708582148 6
    endloop
  endfacet
  facet normal 0 0 1
    outer loop
      vertex 15 0 6
      vertex 9.979092291417851 5.843523489444186 6
      vertex 9.608294692327258 5.391705307672741 6
    endloop
  endfacet
  facet normal 0 0 1
    outer loop
      vertex 15 0 6
      vertex 10.254619764040232 6.358999134553562 6
      vertex 9.979092291417851 5.843523489444186 6
    endloop
  endfacet
  facet normal 0 0 1
    outer loop
      vertex 15 0 6
      vertex 15 15 6
      vertex 10.254619764040232 6.358999134553562 6
    endloop
  endfacet
  facet normal 0 0 -1
    outer loop
      vertex 15 15 0
      vertex 8.97820725201806 6.887706508215857 0
      vertex 9.069256448645168 7.187855484774195 0
    endloop
  endfacet
  facet normal 0 0 -1
    outer loop
      vertex 15 15 0
      vertex 9.069256448645168 7.187855484774195 0
      vertex 9.1 7.5 0
    endloop
  endfacet
  facet normal 0 0 -1
    outer loop
      vertex 15 15 0
      vertex 9.1 7.5 0
      vertex 9.069256448645168 7.812144515225805 0
    endloop
  endfacet
  facet normal 0 0 -1
    outer loop
      vertex 15 15 0
      vertex 9.069256448645168 7.812144515225805 0
      vertex 8.97820725201806 8.112293491784143 0
    endloop
  endfacet
  facet normal 0 0 -1
    outer loop
      vertex 15 15 0
      vertex 8.388912372831363 8.830351379684073 0
      vertex 8.112293491784143 8.97820725201806 0
    endloop
  endfacet
  facet normal 0 0 -1
    outer loop
      vertex 15 15 0
      vertex 8.631370849898476 8.631370849898476 0
      vertex 8.388912372831363 8.830351379684073 0
    endloop
  endfacet
  facet normal 0 0 -1
    outer loop
      vertex 15 15 0
      vertex 8.97820725201806 8.112293491784143 0
      vertex 8.830351379684073 8.388912372831363 0
    endloop
  endfacet
  facet normal 0 0 -1
    outer loop
      vertex 15 15 0
      vertex 8.830351379684073 8.388912372831363 0
      vertex 8.631370849898476 8.631370849898476 0
    endloop
  endfacet
  facet normal 0 0 -1
    outer loop
      vertex 0 15 0
      vertex 15 15 0
      vertex 8.112293491784143 8.97820725201806 0
    endloop
  endfacet
  facet normal 0 1 0
    outer loop
      vertex 0 15 6
      vertex 15 15 6
      vertex 15 15 0
    endloop
  endfacet
  facet normal 0 0 1
    outer loop
      vertex 15 15 6
      vertex 6.918322803041386 10.424288743939107 6
      vertex 7.5 10.48157894736842 6
    endloop
  endfacet
  facet normal 0 0 1
    outer loop
      vertex 15 15 6
      vertex 7.5 10.48157894736842 6
      vertex 8.081677196958614 10.424288743939107 6
    endloop
  endfacet
  facet normal 0 0 1
    outer loop
      vertex 15 15 6
      vertex 8.081677196958614 10.424288743939107 6
      vertex 8.641000865446438 10.254619764040232 6
    endloop
  endfacet
  facet normal 0 0 1
    outer loop
      vertex 15 15 6
      vertex 8.641000865446438 10.254619764040232 6
      vertex 9.156476510555814 9.979092291417851 6
    endloop
  endfacet
  facet normal 1 0 0
    outer loop
      vertex 15 0 6
      vertex 15 15 0
      vertex 15 15 6
    endloop
  endfacet
  facet normal 0 0 1
    outer loop
      vertex 15 15 6
      vertex 10.424288743939107 6.918322803041386 6
      vertex 10.254619764040232 6.358999134553562 6
    endloop
  endfacet
  facet normal 0 0 1
    outer loop
      vertex 15 15 6
      vertex 10.48157894736842 7.5 6
      vertex 10.424288743939107 6.918322803041386 6
    endloop
  endfacet
  facet normal 0 0 1
    outer loop
      vertex 15 15 6
      vertex 10.424288743939107 8.081677196958614 6
      vertex 10.48157894736842 7.5 6
    endloop
  endfacet
  facet normal 0 0 1
    outer loop
      vertex 15 15 6
      vertex 10.254619764040232 8.641000865446438 6
      vertex 10.424288743939107 8.081677196958614 6
    endloop
  endfacet
  facet normal 0 0 1
    outer loop
      vertex 15 15 6
      vertex 9.979092291417851 9.156476510555814 6
      vertex 10.254619764040232 8.641000865446438 6
    endloop
  endfacet
  facet normal 0 0 1
    outer loop
      vertex 15 15 6
      vertex 9.156476510555814 9.979092291417851 6
      vertex 9.608294692327258 9.608294692327258 6
    endloop
  endfacet
  facet normal 0 0 1
    outer loop
      vertex 15 15 6
      vertex 9.608294692327258 9.608294692327258 6
      vertex 9.979092291417851 9.156476510555814 6
    endloop
  endfacet
  facet normal 0.7730104533627374 0.6343932841636449 0
    outer loop
      vertex 6.169648620315927 6.6110876271686365 4.5
      vertex 6.3686291501015235 6.3686291501015235 0
      vertex 6.169648620315927 6.6110876271686365 0
    endloop
  endfacet
  facet normal 0.6343932841636449 0.7730104533627374 0
    outer loop
      vertex 6.3686291501015235 6.3686291501015235 4.5
      vertex 6.6110876271686365 6.169648620315927 0
      vertex 6.3686291501015235 6.3686291501015235 0
    endloop
  endfacet
  facet normal 0.8819212643483554 0.4713967368259969 0
    outer loop
      vertex 6.021792747981941 6.887706508215857 4.5
      vertex 6.169648620315927 6.6110876271686365 0
      vertex 6.021792747981941 6.887706508215857 0
    endloop
  endfacet
  facet normal 0.9569403357322095 0.2902846772544604 0
    outer loop
      vertex 5.930743551354832 7.187855484774195 4.5
      vertex 6.021792747981941 6.887706508215857 0
      vertex 5.930743551354832 7.187855484774195 0
    endloop
  endfacet
  facet normal 0.9951847266721969 0.09801714032956074 0
    outer loop
      vertex 5.9 7.5 4.5
      vertex 5.930743551354832 7.187855484774195 0
      vertex 5.9 7.5 0
    endloop
  endfacet
  facet normal 0.2902846772544604 0.9569403357322095 0
    outer loop
      vertex 6.887706508215857 6.021792747981941 4.5
      vertex 7.187855484774195 5.930743551354832 0
      vertex 6.887706508215857 6.021792747981941 0
    endloop
  endfacet
  facet normal 0.4713967368259969 0.8819212643483554 0
    outer loop
      vertex 6.6110876271686365 6.169648620315927 4.5
      vertex 6.887706508215857 6.021792747981941 0
      vertex 6.6110876271686365 6.169648620315927 0
    endloop
  endfacet
  facet normal 0.09801714032956074 0.9951847266721969 0
    outer loop
      vertex 7.187855484774195 5.930743551354832 4.5
      vertex 7.5 5.9 0
      vertex 7.187855484774195 5.930743551354832 0
    endloop
  endfacet
  facet normal 0.7730104533627374 0.6343932841636449 0
    outer loop
      vertex 6.3686291501015235 6.3686291501015235 4.5
      vertex 6.3686291501015235 6.3686291501015235 0
      vertex 6.169648620315927 6.6110876271686365 4.5
    endloop
  endfacet
  facet normal 0.6343932841636449 0.7730104533627374 -1.474387034417216e-18
    outer loop
      vertex 6.3686291501015235 6.3686291501015235 4.5
      vertex 6.6110876271686365 6.169648620315927 4.5
      vertex 6.6110876271686365 6.169648620315927 0
    endloop
  endfacet
  facet normal 0.9569403357322095 0.2902846772544604 8.540800168827628e-20
    outer loop
      vertex 5.930743551354832 7.187855484774195 4.5
      vertex 6.021792747981941 6.887706508215857 4.5
      vertex 6.021792747981941 6.887706508215857 0
    endloop
  endfacet
  facet normal 0.9951847266721969 0.09801714032956074 0
    outer loop
      vertex 5.930743551354832 7.187855484774195 4.5
      vertex 5.930743551354832 7.187855484774195 0
      vertex 5.9 7.5 4.5
    endloop
  endfacet
  facet normal 0.8819212643483554 0.4713967368259969 0
    outer loop
      vertex 6.169648620315927 6.6110876271686365 4.5
      vertex 6.169648620315927 6.6110876271686365 0
      vertex 6.021792747981941 6.887706508215857 4.5
    endloop
  endfacet
  facet normal 0.4713967368259969 0.8819212643483554 -2.1290230503146397e-18
    outer loop
      vertex 6.6110876271686365 6.169648620315927 4.5
      vertex 6.887706508215857 6.021792747981941 4.5
      vertex 6.887706508215857 6.021792747981941 0
    endloop
  endfacet
  facet normal 0.2902846772544604 0.9569403357322095 0
    outer loop
      vertex 7.187855484774195 5.930743551354832 4.5
      vertex 7.187855484774195 5.930743551354832 0
      vertex 6.887706508215857 6.021792747981941 4.5
    endloop
  endfacet
  facet normal 0.09801714032956074 0.9951847266721969 4.56452777010061e-19
    outer loop
      vertex 7.187855484774195 5.930743551354832 4.5
      vertex 7.5 5.9 4.5
      vertex 7.5 5.9 0
    endloop
  endfacet
  facet normal 0.9951847266721969 -0.09801714032956074 0
    outer loop
      vertex 5.930743551354832 7.812144515225805 4.5
      vertex 5.9 7.5 0
      vertex 5.930743551354832 7.812144515225805 0
    endloop
  endfacet
  facet normal 0.9569403357322095 -0.2902846772544604 0
    outer loop
      vertex 6.021792747981941 8.112293491784143 4.5
      vertex 5.930743551354832 7.812144515225805 0
      vertex 6.021792747981941 8.112293491784143 0
    endloop
  endfacet
  facet normal 0.8819212643483554 -0.4713967368259969 0
    outer loop
      vertex 6.169648620315927 8.388912372831363 4.5
      vertex 6.021792747981941 8.112293491784143 0
      vertex 6.169648620315927 8.388912372831363 0
    endloop
  endfacet
  facet normal 0.7730104533627363 -0.6343932841636463 0
    outer loop
      vertex 6.3686291501015235 8.631370849898476 4.5
      vertex 6.169648620315927 8.388912372831363 0
      vertex 6.3686291501015235 8.631370849898476 0
    endloop
  endfacet
  facet normal 0.6343932841636466 -0.7730104533627361 0
    outer loop
      vertex 6.6110876271686365 8.830351379684073 4.5
      vertex 6.3686291501015235 8.631370849898476 0
      vertex 6.6110876271686365 8.830351379684073 0
    endloop
  endfacet
  facet normal 0.4713967368259969 -0.8819212643483554 0
    outer loop
      vertex 6.887706508215857 8.97820725201806 4.5
      vertex 6.6110876271686365 8.830351379684073 0
      vertex 6.887706508215857 8.97820725201806 0
    endloop
  endfacet
  facet normal 0.2902846772544604 -0.9569403357322095 0
    outer loop
      vertex 7.187855484774195 9.069256448645168 4.5
      vertex 6.887706508215857 8.97820725201806 0
      vertex 7.187855484774195 9.069256448645168 0
    endloop
  endfacet
  facet normal 0.09801714032956074 -0.9951847266721969 0
    outer loop
      vertex 7.5 9.1 4.5
      vertex 7.187855484774195 9.069256448645168 0
      vertex 7.5 9.1 0
    endloop
  endfacet
  facet normal 0.9951847266721969 -0.09801714032956074 0
    outer loop
      vertex 5.9 7.5 4.5
      vertex 5.9 7.5 0
      vertex 5.930743551354832 7.812144515225805 4.5
    endloop
  endfacet
  facet normal 0.9569403357322095 -0.2902846772544604 0
    outer loop
      vertex 5.930743551354832 7.812144515225805 4.5
      vertex 5.930743551354832 7.812144515225805 0
      vertex 6.021792747981941 8.112293491784143 4.5
    endloop
  endfacet
  facet normal 0.8819212643483554 -0.4713967368259969 0
    outer loop
      vertex 6.021792747981941 8.112293491784143 4.5
      vertex 6.021792747981941 8.112293491784143 0
      vertex 6.169648620315927 8.388912372831363 4.5
    endloop
  endfacet
  facet normal 0.7730104533627363 -0.6343932841636463 0
    outer loop
      vertex 6.169648620315927 8.388912372831363 4.5
      vertex 6.169648620315927 8.388912372831363 0
      vertex 6.3686291501015235 8.631370849898476 4.5
    endloop
  endfacet
  facet normal 0.6343932841636466 -0.7730104533627361 0
    outer loop
      vertex 6.3686291501015235 8.631370849898476 4.5
      vertex 6.3686291501015235 8.631370849898476 0
      vertex 6.6110876271686365 8.830351379684073 4.5
    endloop
  endfacet
  facet normal 0.4713967368259969 -0.8819212643483554 0
    outer loop
      vertex 6.6110876271686365 8.830351379684073 4.5
      vertex 6.6110876271686365 8.830351379684073 0
      vertex 6.887706508215857 8.97820725201806 4.5
    endloop
  endfacet
  facet normal 0.2902846772544604 -0.9569403357322095 0
    outer loop
      vertex 6.887706508215857 8.97820725201806 4.5
      vertex 6.887706508215857 8.97820725201806 0
      vertex 7.187855484774195 9.069256448645168 4.5
    endloop
  endfacet
  facet normal 0.09801714032956074 -0.9951847266721969 0
    outer loop
      vertex 7.187855484774195 9.069256448645168 4.5
      vertex 7.187855484774195 9.069256448645168 0
      vertex 7.5 9.1 4.5
    endloop
  endfacet
  facet normal -0.09801714032956074 0.9951847266721969 0
    outer loop
      vertex 7.5 5.9 4.5
      vertex 7.812144515225805 5.930743551354832 0
      vertex 7.5 5.9 0
    endloop
  endfacet
  facet normal -0.2902846772544604 0.9569403357322095 0
    outer loop
      vertex 7.812144515225805 5.930743551354832 4.5
      vertex 8.112293491784143 6.021792747981941 0
      vertex 7.812144515225805 5.930743551354832 0
    endloop
  endfacet
  facet normal -0.4713967368259969 0.8819212643483554 0
    outer loop
      vertex 8.112293491784143 6.021792747981941 4.5
      vertex 8.388912372831363 6.169648620315927 0
      vertex 8.112293491784143 6.021792747981941 0
    endloop
  endfacet
  facet normal -0.6343932841636463 0.7730104533627363 0
    outer loop
      vertex 8.388912372831363 6.169648620315927 4.5
      vertex 8.631370849898476 6.3686291501015235 0
      vertex 8.388912372831363 6.169648620315927 0
    endloop
  endfacet
  facet normal -0.7730104533627361 0.6343932841636466 0
    outer loop
      vertex 8.631370849898476 6.3686291501015235 4.5
      vertex 8.830351379684073 6.6110876271686365 0
      vertex 8.631370849898476 6.3686291501015235 0
    endloop
  endfacet
  facet normal -0.8819212643483554 0.4713967368259969 0
    outer loop
      vertex 8.830351379684073 6.6110876271686365 4.5
      vertex 8.97820725201806 6.887706508215857 0
      vertex 8.830351379684073 6.6110876271686365 0
    endloop
  endfacet
  facet normal -0.9569403357322095 0.2902846772544604 0
    outer loop
      vertex 8.97820725201806 6.887706508215857 4.5
      vertex 9.069256448645168 7.187855484774195 0
      vertex 8.97820725201806 6.887706508215857 0
    endloop
  endfacet
  facet normal -0.9951847266721969 0.09801714032956074 0
    outer loop
      vertex 9.069256448645168 7.187855484774195 4.5
      vertex 9.1 7.5 0
      vertex 9.069256448645168 7.187855484774195 0
    endloop
  endfacet
  facet normal -0.09801714032956074 0.9951847266721969 -4.56452777010061e-19
    outer loop
      vertex 7.5 5.9 4.5
      vertex 7.812144515225805 5.930743551354832 4.5
      vertex 7.812144515225805 5.930743551354832 0
    endloop
  endfacet
  facet normal -0.2902846772544604 0.9569403357322095 -8.540800168827628e-20
    outer loop
      vertex 7.812144515225805 5.930743551354832 4.5
      vertex 8.112293491784143 6.021792747981941 4.5
      vertex 8.112293491784143 6.021792747981941 0
    endloop
  endfacet
  facet normal -0.4713967368259969 0.8819212643483554 2.1290230503146397e-18
    outer loop
      vertex 8.112293491784143 6.021792747981941 4.5
      vertex 8.388912372831363 6.169648620315927 4.5
      vertex 8.388912372831363 6.169648620315927 0
    endloop
  endfacet
  facet normal -0.6343932841636463 0.7730104533627363 -8.337869970088418e-19
    outer loop
      vertex 8.388912372831363 6.169648620315927 4.5
      vertex 8.631370849898476 6.3686291501015235 4.5
      vertex 8.631370849898476 6.3686291501015235 0
    endloop
  endfacet
  facet normal -0.7730104533627361 0.6343932841636466 1.6449042510107774e-18
    outer loop
      vertex 8.631370849898476 6.3686291501015235 4.5
      vertex 8.830351379684073 6.6110876271686365 4.5
      vertex 8.830351379684073 6.6110876271686365 0
    endloop
  endfacet
  facet normal -0.8819212643483554 0.4713967368259969 2.1290230503146397e-18
    outer loop
      vertex 8.830351379684073 6.6110876271686365 4.5
      vertex 8.97820725201806 6.887706508215857 4.5
      vertex 8.97820725201806 6.887706508215857 0
    endloop
  endfacet
  facet normal -0.9569403357322095 0.2902846772544604 -8.540800168827628e-20
    outer loop
      vertex 8.97820725201806 6.887706508215857 4.5
      vertex 9.069256448645168 7.187855484774195 4.5
      vertex 9.069256448645168 7.187855484774195 0
    endloop
  endfacet
  facet normal -0.9951847266721969 0.09801714032956074 -4.56452777010061e-19
    outer loop
      vertex 9.069256448645168 7.187855484774195 4.5
      vertex 9.1 7.5 4.5
      vertex 9.1 7.5 0
    endloop
  endfacet
  facet normal -0.09801714032956074 -0.9951847266721969 0
    outer loop
      vertex 7.812144515225805 9.069256448645168 4.5
      vertex 7.5 9.1 0
      vertex 7.812144515225805 9.069256448645168 0
    endloop
  endfacet
  facet normal -0.4713967368259969 -0.8819212643483554 0
    outer loop
      vertex 8.388912372831363 8.830351379684073 4.5
      vertex 8.112293491784143 8.97820725201806 0
      vertex 8.388912372831363 8.830351379684073 0
    endloop
  endfacet
  facet normal -0.2902846772544604 -0.9569403357322095 0
    outer loop
      vertex 8.112293491784143 8.97820725201806 4.5
      vertex 7.812144515225805 9.069256448645168 0
      vertex 8.112293491784143 8.97820725201806 0
    endloop
  endfacet
  facet normal -0.9951847266721969 -0.09801714032956074 0
    outer loop
      vertex 9.1 7.5 4.5
      vertex 9.069256448645168 7.812144515225805 0
      vertex 9.1 7.5 0
    endloop
  endfacet
  facet normal -0.9569403357322095 -0.2902846772544604 0
    outer loop
      vertex 9.069256448645168 7.812144515225805 4.5
      vertex 8.97820725201806 8.112293491784143 0
      vertex 9.069256448645168 7.812144515225805 0
    endloop
  endfacet
  facet normal -0.8819212643483554 -0.4713967368259969 0
    outer loop
      vertex 8.97820725201806 8.112293491784143 4.5
      vertex 8.830351379684073 8.388912372831363 0
      vertex 8.97820725201806 8.112293491784143 0
    endloop
  endfacet
  facet normal -0.6343932841636479 -0.7730104533627349 0
    outer loop
      vertex 8.631370849898476 8.631370849898476 4.5
      vertex 8.388912372831363 8.830351379684073 0
      vertex 8.631370849898476 8.631370849898476 0
    endloop
  endfacet
  facet normal -0.7730104533627349 -0.6343932841636479 0
    outer loop
      vertex 8.830351379684073 8.388912372831363 4.5
      vertex 8.631370849898476 8.631370849898476 0
      vertex 8.830351379684073 8.388912372831363 0
    endloop
  endfacet
  facet normal -0.09801714032956074 -0.9951847266721969 0
    outer loop
      vertex 7.5 9.1 4.5
      vertex 7.5 9.1 0
      vertex 7.812144515225805 9.069256448645168 4.5
    endloop
  endfacet
  facet normal -0.2902846772544604 -0.9569403357322095 8.540800168827628e-20
    outer loop
      vertex 8.112293491784143 8.97820725201806 4.5
      vertex 7.812144515225805 9.069256448645168 4.5
      vertex 7.812144515225805 9.069256448645168 0
    endloop
  endfacet
  facet normal -0.4713967368259969 -0.8819212643483554 0
    outer loop
      vertex 8.112293491784143 8.97820725201806 4.5
      vertex 8.112293491784143 8.97820725201806 0
      vertex 8.388912372831363 8.830351379684073 4.5
    endloop
  endfacet
  facet normal -0.8819212643483554 -0.4713967368259969 -2.1290230503146397e-18
    outer loop
      vertex 8.97820725201806 8.112293491784143 4.5
      vertex 8.830351379684073 8.388912372831363 4.5
      vertex 8.830351379684073 8.388912372831363 0
    endloop
  endfacet
  facet normal -0.9951847266721969 -0.09801714032956074 4.56452777010061e-19
    outer loop
      vertex 9.1 7.5 4.5
      vertex 9.069256448645168 7.812144515225805 4.5
      vertex 9.069256448645168 7.812144515225805 0
    endloop
  endfacet
  facet normal -0.9569403357322095 -0.2902846772544604 0
    outer loop
      vertex 8.97820725201806 8.112293491784143 4.5
      vertex 8.97820725201806 8.112293491784143 0
      vertex 9.069256448645168 7.812144515225805 4.5
    endloop
  endfacet
  facet normal -0.6343932841636479 -0.7730104533627349 0
    outer loop
      vertex 8.388912372831363 8.830351379684073 4.5
      vertex 8.388912372831363 8.830351379684073 0
      vertex 8.631370849898476 8.631370849898476 4.5
    endloop
  endfacet
  facet normal -0.7730104533627349 -0.6343932841636479 6.632697804158348e-19
    outer loop
      vertex 8.830351379684073 8.388912372831363 4.5
      vertex 8.631370849898476 8.631370849898476 4.5
      vertex 8.631370849898476 8.631370849898476 0
    endloop
  endfacet
  facet normal 0.7054298025247938 0.21398979111367708 0.6757049378308221
    outer loop
      vertex 5.930743551354832 7.187855484774195 4.5
      vertex 4.575711256060894 6.918322803041386 6
      vertex 6.021792747981941 6.887706508215857 4.5
    endloop
  endfacet
  facet normal 0.7336225039306064 0.07225550994652227 0.6757049378308222
    outer loop
      vertex 5.930743551354832 7.187855484774195 4.5
      vertex 5.9 7.5 4.5
      vertex 4.518421052631578 7.5 6
    endloop
  endfacet
  facet normal 0.569841808421665 0.4676570862991081 0.6757049378308221
    outer loop
      vertex 6.3686291501015235 6.3686291501015235 4.5
      vertex 5.020907708582148 5.843523489444186 6
      vertex 5.391705307672741 5.391705307672741 6
    endloop
  endfacet
  facet normal 0.6501278294175441 0.3475005646151929 0.6757049378308218
    outer loop
      vertex 6.169648620315927 6.6110876271686365 4.5
      vertex 4.745380235959769 6.358999134553562 6
      vertex 5.020907708582148 5.843523489444186 6
    endloop
  endfacet
  facet normal 0.7054298025247935 0.21398979111367927 0.6757049378308219
    outer loop
      vertex 6.021792747981941 6.887706508215857 4.5
      vertex 4.575711256060894 6.918322803041386 6
      vertex 4.745380235959769 6.358999134553562 6
    endloop
  endfacet
  facet normal 0.7336225039306065 0.07225550994652294 0.6757049378308221
    outer loop
      vertex 5.930743551354832 7.187855484774195 4.5
      vertex 4.518421052631578 7.5 6
      vertex 4.575711256060894 6.918322803041386 6
    endloop
  endfacet
  facet normal 0.2139897911136772 0.7054298025247941 0.6757049378308216
    outer loop
      vertex 7.187855484774195 5.930743551354832 4.5
      vertex 6.887706508215857 6.021792747981941 4.5
      vertex 6.358999134553562 4.745380235959769 6
    endloop
  endfacet
  facet normal 0.07225550994652229 0.7336225039306066 0.6757049378308221
    outer loop
      vertex 7.187855484774195 5.930743551354832 4.5
      vertex 6.918322803041386 4.575711256060894 6
      vertex 7.5 5.9 4.5
    endloop
  endfacet
  facet normal 0.4676570862991081 0.569841808421665 0.675704937830822
    outer loop
      vertex 6.6110876271686365 6.169648620315927 4.5
      vertex 5.391705307672741 5.391705307672741 6
      vertex 5.843523489444186 5.020907708582148 6
    endloop
  endfacet
  facet normal 0.3475005646151929 0.6501278294175441 0.6757049378308218
    outer loop
      vertex 6.887706508215857 6.021792747981941 4.5
      vertex 5.843523489444186 5.020907708582148 6
      vertex 6.358999134553562 4.745380235959769 6
    endloop
  endfacet
  facet normal 0.2139897911136792 0.7054298025247933 0.6757049378308221
    outer loop
      vertex 7.187855484774195 5.930743551354832 4.5
      vertex 6.358999134553562 4.745380235959769 6
      vertex 6.918322803041386 4.575711256060894 6
    endloop
  endfacet
  facet normal 0.07225550994652294 0.7336225039306065 0.6757049378308222
    outer loop
      vertex 7.5 5.9 4.5
      vertex 6.918322803041386 4.575711256060894 6
      vertex 7.5 4.518421052631578 6
    endloop
  endfacet
  facet normal 0.5698418084216649 0.4676570862991083 0.675704937830822
    outer loop
      vertex 6.3686291501015235 6.3686291501015235 4.5
      vertex 6.169648620315927 6.6110876271686365 4.5
      vertex 5.020907708582148 5.843523489444186 6
    endloop
  endfacet
  facet normal 0.4676570862991083 0.5698418084216649 0.675704937830822
    outer loop
      vertex 6.3686291501015235 6.3686291501015235 4.5
      vertex 5.391705307672741 5.391705307672741 6
      vertex 6.6110876271686365 6.169648620315927 4.5
    endloop
  endfacet
  facet normal 0.3475005646151932 0.6501278294175439 0.6757049378308219
    outer loop
      vertex 6.6110876271686365 6.169648620315927 4.5
      vertex 5.843523489444186 5.020907708582148 6
      vertex 6.887706508215857 6.021792747981941 4.5
    endloop
  endfacet
  facet normal 0.6501278294175439 0.3475005646151932 0.6757049378308218
    outer loop
      vertex 6.169648620315927 6.6110876271686365 4.5
      vertex 6.021792747981941 6.887706508215857 4.5
      vertex 4.745380235959769 6.358999134553562 6
    endloop
  endfacet
  facet normal 0.7336225039306066 -0.07225550994652229 0.6757049378308221
    outer loop
      vertex 5.9 7.5 4.5
      vertex 5.930743551354832 7.812144515225805 4.5
      vertex 4.575711256060894 8.081677196958614 6
    endloop
  endfacet
  facet normal 0.7054298025247941 -0.2139897911136772 0.6757049378308216
    outer loop
      vertex 5.930743551354832 7.812144515225805 4.5
      vertex 6.021792747981941 8.112293491784143 4.5
      vertex 4.745380235959769 8.641000865446438 6
    endloop
  endfacet
  facet normal 0.7336225039306065 -0.07225550994652294 0.6757049378308222
    outer loop
      vertex 5.9 7.5 4.5
      vertex 4.575711256060894 8.081677196958614 6
      vertex 4.518421052631578 7.5 6
    endloop
  endfacet
  facet normal 0.7054298025247933 -0.2139897911136792 0.6757049378308221
    outer loop
      vertex 5.930743551354832 7.812144515225805 4.5
      vertex 4.745380235959769 8.641000865446438 6
      vertex 4.575711256060894 8.081677196958614 6
    endloop
  endfacet
  facet normal 0.6501278294175441 -0.3475005646151929 0.6757049378308218
    outer loop
      vertex 6.021792747981941 8.112293491784143 4.5
      vertex 5.020907708582148 9.156476510555814 6
      vertex 4.745380235959769 8.641000865446438 6
    endloop
  endfacet
  facet normal 0.5698418084216642 -0.46765708629910924 0.6757049378308219
    outer loop
      vertex 6.169648620315927 8.388912372831363 4.5
      vertex 5.391705307672741 9.608294692327258 6
      vertex 5.020907708582148 9.156476510555814 6
    endloop
  endfacet
  facet normal 0.6501278294175439 -0.3475005646151932 0.6757049378308219
    outer loop
      vertex 6.021792747981941 8.112293491784143 4.5
      vertex 6.169648620315927 8.388912372831363 4.5
      vertex 5.020907708582148 9.156476510555814 6
    endloop
  endfacet
  facet normal 0.5698418084216641 -0.46765708629910935 0.6757049378308219
    outer loop
      vertex 6.169648620315927 8.388912372831363 4.5
      vertex 6.3686291501015235 8.631370849898476 4.5
      vertex 5.391705307672741 9.608294692327258 6
    endloop
  endfacet
  facet normal 0.46765708629910974 -0.5698418084216641 0.6757049378308218
    outer loop
      vertex 6.3686291501015235 8.631370849898476 4.5
      vertex 6.6110876271686365 8.830351379684073 4.5
      vertex 5.843523489444186 9.979092291417851 6
    endloop
  endfacet
  facet normal 0.34750056461519313 -0.6501278294175438 0.675704937830822
    outer loop
      vertex 6.6110876271686365 8.830351379684073 4.5
      vertex 6.887706508215857 8.97820725201806 4.5
      vertex 6.358999134553562 10.254619764040232 6
    endloop
  endfacet
  facet normal 0.213989791113677 -0.7054298025247936 0.6757049378308223
    outer loop
      vertex 6.887706508215857 8.97820725201806 4.5
      vertex 7.187855484774195 9.069256448645168 4.5
      vertex 6.918322803041386 10.424288743939107 6
    endloop
  endfacet
  facet normal 0.0722555099465223 -0.7336225039306068 0.6757049378308221
    outer loop
      vertex 7.187855484774195 9.069256448645168 4.5
      vertex 7.5 9.1 4.5
      vertex 7.5 10.48157894736842 6
    endloop
  endfacet
  facet normal 0.4676570862991089 -0.5698418084216647 0.6757049378308219
    outer loop
      vertex 6.3686291501015235 8.631370849898476 4.5
      vertex 5.843523489444186 9.979092291417851 6
      vertex 5.391705307672741 9.608294692327258 6
    endloop
  endfacet
  facet normal 0.3475005646151947 -0.6501278294175432 0.6757049378308218
    outer loop
      vertex 6.6110876271686365 8.830351379684073 4.5
      vertex 6.358999134553562 10.254619764040232 6
      vertex 5.843523489444186 9.979092291417851 6
    endloop
  endfacet
  facet normal 0.2139897911136792 -0.7054298025247933 0.675704937830822
    outer loop
      vertex 6.887706508215857 8.97820725201806 4.5
      vertex 6.918322803041386 10.424288743939107 6
      vertex 6.358999134553562 10.254619764040232 6
    endloop
  endfacet
  facet normal 0.07225550994652072 -0.7336225039306066 0.6757049378308223
    outer loop
      vertex 7.187855484774195 9.069256448645168 4.5
      vertex 7.5 10.48157894736842 6
      vertex 6.918322803041386 10.424288743939107 6
    endloop
  endfacet
  facet normal -0.07225550994652227 0.7336225039306065 0.6757049378308223
    outer loop
      vertex 7.5 5.9 4.5
      vertex 7.5 4.518421052631578 6
      vertex 7.812144515225805 5.930743551354832 4.5
    endloop
  endfacet
  facet normal -0.21398979111367708 0.7054298025247938 0.6757049378308221
    outer loop
      vertex 7.812144515225805 5.930743551354832 4.5
      vertex 8.081677196958614 4.575711256060894 6
      vertex 8.112293491784143 6.021792747981941 4.5
    endloop
  endfacet
  facet normal -0.07225550994652294 0.7336225039306065 0.6757049378308221
    outer loop
      vertex 7.812144515225805 5.930743551354832 4.5
      vertex 7.5 4.518421052631578 6
      vertex 8.081677196958614 4.575711256060894 6
    endloop
  endfacet
  facet normal -0.21398979111367927 0.7054298025247935 0.6757049378308219
    outer loop
      vertex 8.112293491784143 6.021792747981941 4.5
      vertex 8.081677196958614 4.575711256060894 6
      vertex 8.641000865446438 4.745380235959769 6
    endloop
  endfacet
  facet normal -0.3475005646151929 0.6501278294175441 0.6757049378308219
    outer loop
      vertex 8.388912372831363 6.169648620315927 4.5
      vertex 8.641000865446438 4.745380235959769 6
      vertex 9.156476510555814 5.020907708582148 6
    endloop
  endfacet
  facet normal -0.46765708629910924 0.5698418084216642 0.675704937830822
    outer loop
      vertex 8.631370849898476 6.3686291501015235 4.5
      vertex 9.156476510555814 5.020907708582148 6
      vertex 9.608294692327258 5.391705307672741 6
    endloop
  endfacet
  facet normal -0.34750056461519324 0.650127829417544 0.6757049378308219
    outer loop
      vertex 8.112293491784143 6.021792747981941 4.5
      vertex 8.641000865446438 4.745380235959769 6
      vertex 8.388912372831363 6.169648620315927 4.5
    endloop
  endfacet
  facet normal -0.46765708629910935 0.5698418084216641 0.6757049378308219
    outer loop
      vertex 8.388912372831363 6.169648620315927 4.5
      vertex 9.156476510555814 5.020907708582148 6
      vertex 8.631370849898476 6.3686291501015235 4.5
    endloop
  endfacet
  facet normal -0.5698418084216639 0.46765708629910957 0.6757049378308219
    outer loop
      vertex 8.631370849898476 6.3686291501015235 4.5
      vertex 9.608294692327258 5.391705307672741 6
      vertex 8.830351379684073 6.6110876271686365 4.5
    endloop
  endfacet
  facet normal -0.6501278294175441 0.3475005646151933 0.6757049378308216
    outer loop
      vertex 8.830351379684073 6.6110876271686365 4.5
      vertex 9.979092291417851 5.843523489444186 6
      vertex 8.97820725201806 6.887706508215857 4.5
    endloop
  endfacet
  facet normal -0.705429802524794 0.21398979111367714 0.675704937830822
    outer loop
      vertex 8.97820725201806 6.887706508215857 4.5
      vertex 10.254619764040232 6.358999134553562 6
      vertex 9.069256448645168 7.187855484774195 4.5
    endloop
  endfacet
  facet normal -0.7336225039306064 0.07225550994652227 0.6757049378308223
    outer loop
      vertex 9.069256448645168 7.187855484774195 4.5
      vertex 10.424288743939107 6.918322803041386 6
      vertex 9.1 7.5 4.5
    endloop
  endfacet
  facet normal -0.5698418084216647 0.4676570862991089 0.6757049378308218
    outer loop
      vertex 8.830351379684073 6.6110876271686365 4.5
      vertex 9.608294692327258 5.391705307672741 6
      vertex 9.979092291417851 5.843523489444186 6
    endloop
  endfacet
  facet normal -0.6501278294175431 0.34750056461519463 0.6757049378308219
    outer loop
      vertex 8.97820725201806 6.887706508215857 4.5
      vertex 9.979092291417851 5.843523489444186 6
      vertex 10.254619764040232 6.358999134553562 6
    endloop
  endfacet
  facet normal -0.7054298025247931 0.21398979111367916 0.6757049378308223
    outer loop
      vertex 9.069256448645168 7.187855484774195 4.5
      vertex 10.254619764040232 6.358999134553562 6
      vertex 10.424288743939107 6.918322803041386 6
    endloop
  endfacet
  facet normal -0.7336225039306067 0.07225550994652073 0.675704937830822
    outer loop
      vertex 9.1 7.5 4.5
      vertex 10.424288743939107 6.918322803041386 6
      vertex 10.48157894736842 7.5 6
    endloop
  endfacet
  facet normal -0.6501278294175438 -0.34750056461519313 0.675704937830822
    outer loop
      vertex 8.97820725201806 8.112293491784143 4.5
      vertex 10.254619764040232 8.641000865446438 6
      vertex 8.830351379684073 8.388912372831363 4.5
    endloop
  endfacet
  facet normal -0.3475005646151933 -0.6501278294175441 0.6757049378308216
    outer loop
      vertex 8.112293491784143 8.97820725201806 4.5
      vertex 8.388912372831363 8.830351379684073 4.5
      vertex 9.156476510555814 9.979092291417851 6
    endloop
  endfacet
  facet normal -0.4676570862991107 -0.5698418084216632 0.6757049378308219
    outer loop
      vertex 8.388912372831363 8.830351379684073 4.5
      vertex 8.631370849898476 8.631370849898476 4.5
      vertex 9.608294692327258 9.608294692327258 6
    endloop
  endfacet
  facet normal -0.5698418084216632 -0.4676570862991108 0.6757049378308216
    outer loop
      vertex 8.830351379684073 8.388912372831363 4.5
      vertex 9.979092291417851 9.156476510555814 6
      vertex 8.631370849898476 8.631370849898476 4.5
    endloop
  endfacet
  facet normal -0.07225550994652227 -0.7336225039306064 0.6757049378308223
    outer loop
      vertex 7.5 9.1 4.5
      vertex 7.812144515225805 9.069256448645168 4.5
      vertex 8.081677196958614 10.424288743939107 6
    endloop
  endfacet
  facet normal -0.2139897911136771 -0.7054298025247939 0.6757049378308219
    outer loop
      vertex 8.112293491784143 8.97820725201806 4.5
      vertex 8.641000865446438 10.254619764040232 6
      vertex 7.812144515225805 9.069256448645168 4.5
    endloop
  endfacet
  facet normal -0.07225550994652073 -0.7336225039306067 0.675704937830822
    outer loop
      vertex 7.5 9.1 4.5
      vertex 8.081677196958614 10.424288743939107 6
      vertex 7.5 10.48157894736842 6
    endloop
  endfacet
  facet normal -0.21398979111367916 -0.7054298025247931 0.6757049378308223
    outer loop
      vertex 7.812144515225805 9.069256448645168 4.5
      vertex 8.641000865446438 10.254619764040232 6
      vertex 8.081677196958614 10.424288743939107 6
    endloop
  endfacet
  facet normal -0.34750056461519463 -0.6501278294175431 0.6757049378308219
    outer loop
      vertex 8.112293491784143 8.97820725201806 4.5
      vertex 9.156476510555814 9.979092291417851 6
      vertex 8.641000865446438 10.254619764040232 6
    endloop
  endfacet
  facet normal -0.46765708629911 -0.5698418084216638 0.6757049378308216
    outer loop
      vertex 8.388912372831363 8.830351379684073 4.5
      vertex 9.608294692327258 9.608294692327258 6
      vertex 9.156476510555814 9.979092291417851 6
    endloop
  endfacet
  facet normal -0.7336225039306068 -0.0722555099465223 0.6757049378308221
    outer loop
      vertex 9.1 7.5 4.5
      vertex 10.48157894736842 7.5 6
      vertex 9.069256448645168 7.812144515225805 4.5
    endloop
  endfacet
  facet normal -0.7054298025247936 -0.213989791113677 0.6757049378308223
    outer loop
      vertex 8.97820725201806 8.112293491784143 4.5
      vertex 9.069256448645168 7.812144515225805 4.5
      vertex 10.424288743939107 8.081677196958614 6
    endloop
  endfacet
  facet normal -0.7336225039306066 -0.07225550994652072 0.6757049378308222
    outer loop
      vertex 9.069256448645168 7.812144515225805 4.5
      vertex 10.48157894736842 7.5 6
      vertex 10.424288743939107 8.081677196958614 6
    endloop
  endfacet
  facet normal -0.7054298025247933 -0.2139897911136792 0.675704937830822
    outer loop
      vertex 8.97820725201806 8.112293491784143 4.5
      vertex 10.424288743939107 8.081677196958614 6
      vertex 10.254619764040232 8.641000865446438 6
    endloop
  endfacet
  facet normal -0.6501278294175432 -0.3475005646151947 0.6757049378308218
    outer loop
      vertex 8.830351379684073 8.388912372831363 4.5
      vertex 10.254619764040232 8.641000865446438 6
      vertex 9.979092291417851 9.156476510555814 6
    endloop
  endfacet
  facet normal -0.5698418084216637 -0.4676570862991099 0.6757049378308218
    outer loop
      vertex 8.631370849898476 8.631370849898476 4.5
      vertex 9.979092291417851 9.156476510555814 6
      vertex 9.608294692327258 9.608294692327258 6
    endloop
  endfacet
endsolid OpenSCAD_Model
